# xmcd CD database file
#
# Track frame offsets:
#	150
#	3165
#	30780
#	48792
#	70237
#	97780
#	111287
#	146562
#	171632
#	191152
#	222075
#	266295
#	292630
#	303945
#
# Disc length: 4169 seconds
#
# Revision: 0
# Processed by: cddbd v1.4PL0 Copyright (c) Steve Scherf et al.
# Submitted via: CDex 1.50
#
DISCID=b210470e
DTITLE=Atistes variés - Jazz Focus [CD1]
DYEAR=1992
DGENRE=Jazz
TTITLE0=Introduction
TTITLE1=Deep Song
TTITLE2=Return to paradise
TTITLE3=I wish I knew
TTITLE4=Soar like an eagle
TTITLE5=How high the moon
TTITLE6=Sam song
TTITLE7=Bittersweet
TTITLE8=Texas hump
TTITLE9=Baba
TTITLE10=My Corner of the sky
TTITLE11=Thirty five
TTITLE12=Quem nasceu?
TTITLE13=Dos prazeres, das cancoes
EXTD=YEAR: 1992
EXTT0=
EXTT1=
EXTT2=
EXTT3=
EXTT4=
EXTT5=
EXTT6=
EXTT7=
EXTT8=
EXTT9=
EXTT10=
EXTT11=
EXTT12=
EXTT13=
PLAYORDER=
